<?xml version="1.0" encoding="UTF-8" standalone="no"?>
<svg
   viewBox="472.1004591848899 97.4508912167372 853.5000000000001 690.5"
   version="1.1"
   id="svg1822"
   sodipodi:docname="2022 - ЦРКВЕНА СЛОВА.svg"
   inkscape:version="1.2-beta (1b65182c, 2022-04-05)"
   inkscape:export-filename="2022 - Серафим - лијеви - v4.png"
   inkscape:export-xdpi="96"
   inkscape:export-ydpi="96"
   xmlns:inkscape="http://www.inkscape.org/namespaces/inkscape"
   xmlns:sodipodi="http://sodipodi.sourceforge.net/DTD/sodipodi-0.dtd"
   xmlns="http://www.w3.org/2000/svg"
   xmlns:svg="http://www.w3.org/2000/svg">
  <sodipodi:namedview
     id="namedview1824"
     pagecolor="#ffffff"
     bordercolor="#000000"
     borderopacity="0.25"
     inkscape:pageshadow="2"
     inkscape:pageopacity="0.0"
     inkscape:pagecheckerboard="0"
     inkscape:deskcolor="#d1d1d1"
     showgrid="true"
     inkscape:zoom="6.2258716"
     inkscape:cx="147.9311"
     inkscape:cy="493.5052"
     inkscape:window-width="1440"
     inkscape:window-height="847"
     inkscape:window-x="0"
     inkscape:window-y="25"
     inkscape:window-maximized="0"
     inkscape:current-layer="layer32"
     showguides="false">
    <inkscape:grid
       type="xygrid"
       id="grid2082" />
  </sodipodi:namedview>
  <defs
     id="defs1294" />
  <path
     style="font-size:66.6667px;font-family:'Ponomar Unicode';-inkscape-font-specification:'Ponomar Unicode';display:none;fill:#000000;stroke:#000000;stroke-width:7;stroke-opacity:1"
     d="M 921.12483,675.50623 H 1259.6214"
     id="path2109"
     inkscape:label="поравнање" />
  <path
     style="font-size:66.6667px;font-family:'Ponomar Unicode';-inkscape-font-specification:'Ponomar Unicode';display:none;fill:#000000;stroke:#000000;stroke-width:7;stroke-opacity:1"
     d="M 924.19069,608.38546 H 1262.6873"
     id="path2109-0"
     inkscape:label="поравнање" />
  <g
     inkscape:groupmode="layer"
     id="layer8"
     inkscape:label="Слова"
     transform="translate(58.000029,44.985392)">
    <g
       inkscape:groupmode="layer"
       id="layer25"
       inkscape:label="Ш"
       transform="translate(-58.00003,-44.985392)">
      <rect
         style="display:inline;fill:#000000;stroke-width:6.15255"
         id="rect794-8-8-85"
         width="2.4610023"
         height="8.2778587"
         x="1216.3312"
         y="570.91498"
         inkscape:label="доље-2" />
      <rect
         style="display:inline;fill:#000000;stroke-width:6.15255"
         id="rect1078-93-7"
         width="2.4610023"
         height="8.2778587"
         x="1195.6222"
         y="513.28668"
         inkscape:label="горе-1" />
      <rect
         style="display:inline;fill:#000000;stroke-width:6.15255"
         id="rect1080-7-0"
         width="2.4610023"
         height="8.2778587"
         x="1237.1383"
         y="513.28668"
         inkscape:label="горе-2" />
      <rect
         style="display:inline;opacity:0.5;fill:#0000ff;stroke-width:8.9901"
         id="rect747-2-157-0"
         width="57.890121"
         height="51.754246"
         x="1188.2222"
         y="520.77777"
         ry="0"
         inkscape:label="димензије" />
      <path
         d="m 1188.4752,569.73084 v 2.37681 h 57.3334 v -2.37681 h -4 v -46.11365 h 4 v -2.8429 h -16 v 2.8429 h 4 v 46.11365 h -12.6667 v -46.11365 h 4 v -2.8429 h -16 v 2.8429 h 4 v 46.11365 h -12.6667 v -46.11365 h 4 v -2.8429 h -16 v 2.8429 h 4 v 46.11365 z"
         id="path764"
         style="font-size:66.6667px;font-family:'Ponomar Unicode';-inkscape-font-specification:'Ponomar Unicode';stroke-width:7"
         inkscape:label="Ш"
         sodipodi:nodetypes="ccccccccccccccccccccccccccccc" />
    </g>
    <g
       inkscape:groupmode="layer"
       id="layer26"
       inkscape:label="Џ"
       transform="translate(-58.00003,-44.985392)">
      <rect
         style="display:inline;fill:#000000;stroke-width:6.15255"
         id="rect1078-93-3-9-3"
         width="2.4610023"
         height="8.2778587"
         x="1146.5336"
         y="513.12061"
         inkscape:label="горе-1" />
      <rect
         style="display:inline;fill:#000000;stroke-width:6.15255"
         id="rect1080-7-1-8-9"
         width="2.4610023"
         height="8.2778587"
         x="1171.6644"
         y="513.12061"
         inkscape:label="горе-2" />
      <rect
         style="display:inline;opacity:0.5;fill:#0000ff;stroke-width:9.16339"
         id="rect747-2-157-7-9-2"
         width="42.290623"
         height="73.601891"
         x="1139.4027"
         y="520.61169"
         ry="0"
         inkscape:label="димензије" />
      <path
         d="m 1160.4752,594.10766 c 0.7334,0 1.1334,-0.4 1.3334,-1 0.2,-0.6 0.5333,-1.26667 1.0666,-1.93333 1.4,-2 3.8667,-3.8 6.6,-4.4 0.5334,-0.0667 0.8667,-0.6 0.8667,-1.20001 0,-0.6 -0.3333,-1.06666 -0.8667,-1.2 -2.9333,-0.86666 -5,-3.53333 -5,-7.13333 v -5.13334 h 16.6667 v -2.45449 h -4 v -46.19133 h 4 v -2.68754 h -16 v 2.68754 h 4 v 46.19133 h -17.3333 v -46.19133 h 4 v -2.68754 h -16 v 2.68754 h 4 v 46.19133 h -4 v 2.45449 h 16.6666 v 5.13334 c 0,3.6 -2.0666,6.26667 -5,7.13333 -0.5333,0.13334 -0.9333,0.6 -0.9333,1.2 0,0.60001 0.4,1.13334 0.9333,1.20001 0.8,0.2 1.6,0.46666 2.4667,0.93333 2.1333,1.13333 4.5333,2.93333 5.2,5.4 0.2,0.6 0.6,1 1.3333,1 z"
         id="path762"
         style="font-size:66.6667px;font-family:'Ponomar Unicode';-inkscape-font-specification:'Ponomar Unicode';stroke-width:7"
         inkscape:label="Џ"
         sodipodi:nodetypes="ssccscsccccccccccccccccccccccscscccs" />
    </g>
    <g
       inkscape:groupmode="layer"
       id="layer27"
       inkscape:label="Ч"
       transform="translate(-58.00003,-44.985392)">
      <rect
         style="display:inline;fill:#000000;stroke-width:6.15255"
         id="rect794-8-8-8-9"
         width="2.4610023"
         height="8.2778587"
         x="1125.1857"
         y="570.76318"
         inkscape:label="доље-2" />
      <rect
         style="display:inline;fill:#000000;stroke-width:6.15255"
         id="rect1078-93-3-9"
         width="2.4610023"
         height="8.2778587"
         x="1104.0548"
         y="513.13489"
         inkscape:label="горе-1" />
      <rect
         style="display:inline;fill:#000000;stroke-width:6.15255"
         id="rect1080-7-1-8"
         width="2.4610023"
         height="8.2778587"
         x="1125.1857"
         y="513.13489"
         inkscape:label="горе-2" />
      <rect
         style="display:inline;opacity:0.5;fill:#0000ff;stroke-width:7.26962"
         id="rect747-2-157-7-9"
         width="37.852837"
         height="51.754246"
         x="1096.924"
         y="520.62598"
         ry="0"
         inkscape:label="димензије" />
      <path
         d="m 1109.1419,543.48734 v -20.10319 h 4 v -2.60986 h -16 v 2.60986 h 4 v 22.52349 c 0,0.33333 0.1333,0.66666 0.6,0.73333 4.1333,0.46667 8.5333,1 13,2.4 2.7334,0.86667 5.4,2.06667 7.6,3.2 v 17.52349 h -4 v 2.34319 h 16 v -2.34319 h -4 v -46.38031 h 4 v -2.60986 h -16 v 2.60986 h 4 v 25.50319 c -3.8666,-1.86667 -9.0667,-3.93333 -13.2,-5.4 z"
         id="path760"
         style="font-size:66.6667px;font-family:'Ponomar Unicode';-inkscape-font-specification:'Ponomar Unicode';stroke-width:7"
         inkscape:label="Ч"
         sodipodi:nodetypes="cccccccsccccccccccccccccc" />
    </g>
    <g
       inkscape:groupmode="layer"
       id="layer28"
       inkscape:label="Ц"
       transform="translate(-58.00003,-44.985392)">
      <rect
         style="display:inline;fill:#000000;stroke-width:6.15255"
         id="rect1078-93-3-3"
         width="2.4610023"
         height="8.2778587"
         x="1062.6962"
         y="512.9361"
         inkscape:label="горе-1" />
      <rect
         style="display:inline;fill:#000000;stroke-width:6.15255"
         id="rect1080-7-1-5"
         width="2.4610023"
         height="8.2778587"
         x="1083.6747"
         y="512.9361"
         inkscape:label="горе-2" />
      <rect
         style="display:inline;opacity:0.5;fill:#0000ff;stroke-width:8.56647"
         id="rect747-2-157-7-6"
         width="39.063145"
         height="69.639877"
         x="1055.5474"
         y="520.42719"
         ry="0"
         inkscape:label="димензије" />
      <path
         d="m 1094.342,580.10766 v -10.29914 h -5.6 v -46.34669 h 4 v -2.68754 h -16 v 2.68754 h 4 v 46.34669 h -12.9333 v -46.34669 h 4 v -2.68754 h -16 v 2.68754 h 4 v 46.34669 h -4 v 2.29913 h 31.4 l 0.078,9.24638 c -1.2,0.73333 -4.2766,2.33275 -5.3433,2.93275 -2.9463,-2.08556 -9.2756,-5.89968 -14.5565,-8.86782 -2.6667,1.8 -6.7113,5.42203 -8.3779,7.2887 0.2666,0.4 1.3768,0.93333 1.7768,1.2 1.2,-1.06667 2.4,-1.97798 3.7333,-2.91131 3.4,1.8 10.6899,7.17798 12.9565,8.91131 4.4667,-2.06667 13.7334,-7 16.8667,-9.8 z"
         id="path758"
         style="font-size:66.6667px;font-family:'Ponomar Unicode';-inkscape-font-specification:'Ponomar Unicode';stroke-width:7"
         inkscape:label="Ц"
         sodipodi:nodetypes="cccccccccccccccccccccccccccccc" />
    </g>
    <g
       inkscape:groupmode="layer"
       id="layer29"
       inkscape:label="Х"
       transform="translate(-58.00003,-44.985392)">
      <rect
         style="display:inline;fill:#000000;stroke-width:6.15255"
         id="rect794-6-3-6"
         width="2.4610023"
         height="8.2778587"
         x="1017.9905"
         y="570.58649"
         inkscape:label="доље-1" />
      <rect
         style="display:inline;fill:#000000;stroke-width:6.15255"
         id="rect794-8-8-8"
         width="2.4610023"
         height="8.2778587"
         x="1044.1621"
         y="570.58649"
         inkscape:label="доље-2" />
      <rect
         style="display:inline;fill:#000000;stroke-width:6.15255"
         id="rect1078-93-3"
         width="2.4610023"
         height="8.2778587"
         x="1021.7217"
         y="512.95819"
         inkscape:label="горе-1" />
      <rect
         style="display:inline;fill:#000000;stroke-width:6.15255"
         id="rect1080-7-1"
         width="2.4610023"
         height="8.2778587"
         x="1048.7002"
         y="512.95819"
         inkscape:label="горе-2" />
      <rect
         style="display:inline;opacity:0.5;fill:#0000ff;stroke-width:7.58558"
         id="rect747-2-157-7"
         width="41.214798"
         height="51.754246"
         x="1013.1111"
         y="520.44928"
         ry="0"
         inkscape:label="димензије" />
      <path
         d="m 1020.3733,559.71046 c 0,1.4 0.6666,2.8 1.7333,3.66667 l -3.6357,6.54789 h -4.1334 v 2.34504 h 11.4001 v -2.34504 h -4.7138 l 3.0807,-5.46479 c 0.4,0.13333 0.8,0.13374 1.2667,0.13374 2.2667,0 4.5333,-1.73334 4.5333,-4.46667 0,-1.4 -0.6,-2.8 -1.7333,-3.66667 l 3.3859,-6.32391 9.3805,19.7883 h -5.2 v 2.34504 h 18.2 v -2.34504 h -4.1333 l -13.7758,-28.03071 5.7051,-10.82427 c 1,-1.86667 1.8,-3.46667 4.4,-3.46667 2.8667,0 4.1374,2.6 5.7374,4.66667 0.4666,0.6 1.1333,0.26667 0.8666,-0.46667 -0.7333,-1.8 -0.8666,-3.33333 -0.8666,-4.6 0,-2.4 0.8666,-3.93334 1.7333,-4.86667 0.2,-0.2 0.2667,-0.4 0.2667,-0.6 0,-1 -2.7334,-1.13333 -3.7334,-1.13333 -2.6666,0 -4.6,0.93333 -5.6666,1.93333 -1.4,1.26667 -3.6,4.8 -5.2,7.86667 l -4.6667,9.06667 -8.2,-16.25603 h 5.2 v -2.27731 h -18.2001 v 2.27731 h 4.1334 l 12.4667,25.05604 -3.7644,7.24041 c -0.4,-0.13334 -0.8,-0.2 -1.2666,-0.2 -2.2667,0 -4.6,1.66666 -4.6,4.4 z"
         id="path756"
         style="font-size:66.6667px;font-family:'Ponomar Unicode';-inkscape-font-specification:'Ponomar Unicode';stroke-width:7"
         inkscape:label="Х"
         sodipodi:nodetypes="sccccccccssccccccccccsccscsscccccccccccss" />
    </g>
    <g
       inkscape:groupmode="layer"
       id="layer30"
       inkscape:label="Ф"
       transform="translate(-58.00003,-44.985392)">
      <rect
         style="display:inline;fill:#000000;stroke-width:6.03148"
         id="rect794-8-7-7-8"
         width="2.3651025"
         height="8.2778587"
         x="986.04578"
         y="573.14642"
         inkscape:label="доље-1" />
      <rect
         style="display:inline;opacity:0.5;fill:#0000ff;stroke-width:8.27745"
         id="rect747-6-7-9-3"
         width="48.55122"
         height="52.313438"
         x="963.61792"
         y="522.16852"
         ry="0"
         inkscape:label="димензије" />
      <rect
         style="display:inline;fill:#000000;stroke-width:6.03148"
         id="rect1084-6"
         width="2.3651025"
         height="8.2778587"
         x="986.97955"
         y="515.51794"
         inkscape:label="горе-1" />
      <path
         d="m 995.82103,574.20369 v -2.34504 h -4 v -7.04858 c 1.5333,0.8 3.7333,1.12695 5.8,1.12695 8.33327,0 14.59997,-3.73334 14.59997,-12.00001 0,-7.8 -7.3333,-11 -13.19997,-15 -2.8667,-1.93334 -5.4,-3.66667 -7.2,-6.06667 v -7.65497 h 4 v -2.34504 h -16 v 2.34504 h 4 v 7.65497 c -1.8667,2.4 -4.4,4.13333 -7.2,6.06667 -5.86667,4 -13.20001,7.2 -13.20001,15 0,8.26667 6.26667,12.00001 14.60001,12.00001 2.06667,0 4.2,-0.32695 5.8,-1.12695 v 7.04858 h -4 v 2.34504 z m 0.6,-33.46668 c 3.3333,3.73333 7.26667,7.53333 7.26667,13.46667 0,4.6 -1.8,9.46667 -6.59997,9.46667 -2.0667,0 -3.8,-1.00852 -5.2667,-1.54185 v -26.38404 c 1.2,1.8 2.9333,3.12588 4.6,4.99255 z m -17.86667,22.93334 c -4.8,0 -6.6,-4.86667 -6.6,-9.46667 0,-5.93334 3.93333,-9.73334 7.26667,-13.46667 1.66667,-1.86667 3.4,-3.19255 4.6,-4.99255 v 26.38404 c -1.4667,0.53333 -3.26667,1.54185 -5.26667,1.54185 z"
         id="path754"
         style="font-size:66.6667px;font-family:'Ponomar Unicode';-inkscape-font-specification:'Ponomar Unicode';stroke-width:7"
         inkscape:label="Ф"
         sodipodi:nodetypes="ccccssccccccccccsscccccsssccssssccs" />
    </g>
    <g
       inkscape:groupmode="layer"
       id="layer22"
       inkscape:label="У">
      <rect
         style="display:inline;fill:#000000;stroke-width:6.15255"
         id="rect1078-93-2"
         width="2.4610023"
         height="8.2778587"
         x="867.66876"
         y="468.60135"
         inkscape:label="горе-1" />
      <rect
         style="display:inline;fill:#000000;stroke-width:6.15255"
         id="rect1080-7-7"
         width="2.4610023"
         height="8.2778587"
         x="900.64679"
         y="468.60135"
         inkscape:label="горе-2" />
      <rect
         style="display:inline;opacity:0.5;fill:#0000ff;stroke-width:8.6223"
         id="rect747-2-157-5"
         width="41.21109"
         height="66.873322"
         x="863.05811"
         y="475.51089"
         ry="0"
         inkscape:label="димензије" />
      <path
         d="m 898.27736,476.47471 c -2.7334,0.93333 -4.8667,2.46666 -6.4667,4.6 -2.2667,3 -3.6,8.13334 -4.0667,15.26667 l -1.8666,28.44088 h -7.0667 c 0,-25.13335 -1.6667,-40.24088 -4.9333,-48.30755 h -10.2 c -0.2,0 -0.3334,0.2 -0.3334,0.46666 0,0.2 0,0.26667 0.067,0.33334 5.4,5.4 8.1333,21.80001 8.1333,49.06669 v 1.46667 h 14.3334 l -0.5334,8.13333 c -0.2,3.53334 -2.7333,3.63188 -6.5333,3.63188 h -1.2 c -0.4,0 -0.6,1.43479 -0.6,1.96813 0,0.53333 0.2,0.8 0.6,0.8 h 15.8 c 0.4,0 0.6,-0.26667 0.6,-0.8 0,-0.53334 -0.2,-1.96813 -0.6,-1.96813 h -3.0667 c -1.9333,0 -1.9996,0.0348 -1.9996,-1.83187 v -0.13334 l 0.1333,-3.53333 2.3333,-37.60002 c 0.4667,-7.86667 1.333,-11.80001 5.533,-11.80001 h 0.2 c 2.6,0 5,1.33333 7.2,3.93334 0.2667,0.26666 0.4667,-0.0667 0.4667,-0.4 0,-0.33334 -0.2,-1.20001 -0.5333,-2.80001 -0.4,-1.46666 -0.6,-3 -0.6,-4.13333 0,-1.13334 0.3333,-2.66667 0.9333,-4.86667 0.2,-0.53333 0.067,-0.8 -0.3333,-0.8 -3.2667,0.46667 -5.0667,0.73333 -5.4,0.86667 z"
         id="path686"
         sodipodi:nodetypes="scccccsscscccssssssssscccsscscsccss"
         style="font-size:66.6667px;font-family:'Ponomar Unicode';-inkscape-font-specification:'Ponomar Unicode';display:inline;stroke-width:7"
         inkscape:label="У" />
    </g>
    <g
       inkscape:groupmode="layer"
       id="layer31"
       inkscape:label="Ћ"
       transform="translate(-58.00003,-44.985392)">
      <rect
         style="display:inline;fill:#000000;stroke-width:6.03148"
         id="rect794-8-7-7-5-3-9-3-0-2-7-7"
         width="2.3651025"
         height="8.2778587"
         x="909.97607"
         y="571.10052"
         inkscape:label="доље-2" />
      <rect
         style="display:inline;fill:#000000;stroke-width:6.03148"
         id="rect794-8-7-7-5-3-9-3-09-3-24"
         width="2.3651025"
         height="8.2778587"
         x="886.56415"
         y="571.10052"
         inkscape:label="доље-1" />
      <rect
         style="display:inline;fill:#000000;stroke-width:6.03148"
         id="rect1092-5-4-2"
         width="2.3651025"
         height="8.2778587"
         x="887.70599"
         y="513.47198"
         inkscape:label="горе-1" />
      <rect
         style="display:inline;opacity:0.5;fill:#0000ff;stroke-width:8.62815"
         id="rect747-6-2-0-94-3-8-9"
         width="53.322487"
         height="51.754246"
         x="867.09381"
         y="520.70538"
         ry="0"
         inkscape:label="димензије" />
      <path
         d="m 906.75505,569.35799 h -4.2 v 3.21916 h 17.06668 v -3.21916 h -3.73334 c 0,-2.06667 0.2,-4.51418 0.2,-7.31418 v -1.46667 c 0,-5.53333 -1.53333,-9.73333 -4.33333,-12.93334 -2.06667,-2.13333 -4.66667,-4.27731 -7.73334,-5.41064 l -3.86667,-0.93334 c -2.6,-0.4 -5.33334,-0.8 -8.20001,-0.8 v -16.90566 h 2.40001 c 2.93333,0 4.8,0.33333 5.46667,0.93333 1.93333,1.6 3.8,4.6 4.2,7.60001 0.0667,0.33333 0.53333,0.46666 0.93333,0.46666 0.4,0 0.8,-0.13333 0.86667,-0.46666 0.46667,-3.33334 1.33333,-7.06668 3.73333,-8.53334 0.26667,-0.13334 0.46667,-1.61704 0.46667,-2.01704 0,-0.4 -0.2,-0.73333 -0.6,-0.73333 h -42.33336 v 2.75037 h 2.66667 v 13.51631 h 7.66667 v -13.51631 h 6.53334 v 46.16383 h -4 v 2.81916 h 15.53334 v -2.81916 h -3.53334 v -26.58085 c 5.06667,0 9.33334,1.13333 11.60001,4.2 2.8,4.33333 4.06667,9.26667 4.06667,15.86667 0,2.6 -0.26667,4.18085 -0.86667,6.11418 z"
         id="path752"
         style="font-size:66.6667px;font-family:'Ponomar Unicode';-inkscape-font-specification:'Ponomar Unicode';stroke-width:7"
         inkscape:label="Ћ"
         sodipodi:nodetypes="ccccccsscccccsccsccsscccccccccccccccsc" />
    </g>
    <g
       inkscape:groupmode="layer"
       id="layer13"
       inkscape:label="Т"
       transform="translate(-58.00003,-44.985392)">
      <rect
         style="display:inline;fill:#000000;stroke-width:6.03148"
         id="rect794-8-7-7-5"
         width="2.3651025"
         height="8.2778587"
         x="842.78589"
         y="570.62177"
         inkscape:label="доље-1" />
      <rect
         style="display:inline;opacity:0.5;fill:#0000ff;stroke-width:7.97399"
         id="rect747-6-7-9-7"
         width="45.056664"
         height="52.313438"
         x="821.0155"
         y="520.18427"
         ry="0"
         inkscape:label="димензије" />
      <rect
         style="display:inline;fill:#000000;stroke-width:6.03148"
         id="rect1086"
         width="2.3651025"
         height="8.2778587"
         x="842.78589"
         y="512.99323"
         inkscape:label="горе-1" />
      <path
         d="m 833.55097,523.60273 h 6 v 45.44125 h -4 v 2.92718 h 16 v -2.92718 h -4 v -45.44125 h 6 c 1.8667,2.6 4.0667,6.23508 5.5333,10.03508 0.1334,0.33333 0.7334,0.33333 0.7334,0 0,-4.73334 2.4,-10.00001 5.6,-11.73334 0.2,-0.0667 0.2666,-0.33334 0.2666,-0.6 0,-0.33334 -0.1333,-0.66667 -0.4666,-0.66667 h -43.3334 c -0.3333,0 -0.4667,0.33333 -0.4667,0.66667 0,0.26666 0.067,0.53333 0.2667,0.6 3.2,1.73333 5.6,6.93334 5.6,11.73334 0,0.33333 0.6,0.33333 0.7333,0 1.4667,-3.8 3.6667,-7.43508 5.5334,-10.03508 z"
         style="font-size:66.6667px;font-family:'Ponomar Unicode';-inkscape-font-specification:'Ponomar Unicode';display:inline;stroke:none;stroke-width:7"
         id="path1997-3"
         inkscape:label="Т"
         sodipodi:nodetypes="cccccccccccscsssscscc" />
    </g>
    <g
       inkscape:groupmode="layer"
       id="layer12"
       inkscape:label="С"
       transform="translate(-58.00003,-44.985392)">
      <rect
         style="display:inline;fill:#000000;stroke-width:6.03148"
         id="rect794-8-7-7"
         width="2.3651025"
         height="8.2778587"
         x="791.39258"
         y="571.18201"
         inkscape:label="доље-1" />
      <rect
         style="display:inline;opacity:0.5;fill:#0000ff;stroke-width:7.10808"
         id="rect747-6-7-9"
         width="35.802391"
         height="52.313438"
         x="779.15588"
         y="520.2041"
         ry="0"
         inkscape:label="димензије" />
      <rect
         style="display:inline;fill:#000000;stroke-width:6.03148"
         id="rect1084"
         width="2.3651025"
         height="8.2778587"
         x="795.39258"
         y="513.55353"
         inkscape:label="горе-1" />
      <path
         d="m 814.28182,552.73188 c 0.4667,0 0.7334,-1.74276 0.7334,-2.20943 0,-0.4 -0.2667,-0.8 -0.7334,-0.8 h -13.19994 c -0.4666,0 -0.7333,0.4 -0.7333,0.8 0,0.46667 0.2667,2.20943 0.7333,2.20943 h 3.06674 v 0.79057 c 0,7.06667 -2.86674,10.94127 -6.7333,14.34127 -1.1334,1 -2.9334,1.53333 -4.9334,1.53333 h -0.8666 c -0.067,-0.26666 -0.067,-0.46666 -0.067,-0.73333 0,-0.4 0.067,-0.86667 0.067,-1.4 0,-4.46667 -1,-5.4746 -2.0667,-9.80793 -1.0667,-4.33334 -1.6,-9.00001 -1.6,-14.80001 0,-7.53334 1.6,-16.99455 7,-19.59455 0.3333,-0.13333 0.7333,-0.26667 1.2,-0.26667 0.3333,0 0.6667,0.0667 0.9333,0.2 3.93336,2.06667 6.8,6.16107 6.8,11.96108 h -3.40004 c -0.4666,0 -0.6666,1.43347 -0.6666,1.83347 0,0.46667 0.2,0.86667 0.6666,0.86667 h 13.20004 c 0.4666,0 0.6666,-0.4 0.6666,-0.86667 0,-0.4 -0.2,-1.83347 -0.6666,-1.83347 h -1.4666 c -0.7334,-7.13334 -7.7334,-12.83321 -13.9334,-14.49987 -0.4666,-0.13334 -1,-0.2 -1.5333,-0.2 -0.5333,0 -1.1333,0.0667 -1.6,0.2 -8.1333,1.86666 -16.0667,12.66667 -16.0667,22.33334 0,6.26667 1.8667,10.73334 5.4667,15.20001 2.6667,3.33333 5,6.8 5,11.06667 0,0.86667 -0.2667,1.6 -0.2667,2.4 0,0.6 0.3334,1.06667 1.0667,1.06667 3,0 4.8667,-0.26667 7,-1 8.0667,-2.6 15.5333,-8.65725 15.5333,-18.79058 z"
         id="path2139-6-5"
         sodipodi:nodetypes="sssssscscscsssscsccssssssccscscsssccs"
         style="font-size:66.6667px;font-family:'Ponomar Unicode';-inkscape-font-specification:'Ponomar Unicode';display:inline;stroke:none;stroke-width:7"
         inkscape:label="С" />
    </g>
    <g
       inkscape:groupmode="layer"
       id="layer19"
       inkscape:label="Р">
      <rect
         style="display:inline;fill:#000000;stroke-width:5.61029"
         id="rect794-6-9-4"
         width="2.016376"
         height="8.4007807"
         x="688.79706"
         y="525.78235"
         inkscape:label="доље-1" />
      <rect
         style="display:inline;fill:#000000;stroke-width:5.61029"
         id="rect1078-9-7"
         width="2.016376"
         height="8.4007807"
         x="703.74573"
         y="467.29791"
         inkscape:label="горе-1" />
      <rect
         style="display:inline;opacity:0.5;fill:#0000ff;stroke-width:7.24814"
         id="rect747-2-15-9"
         width="37.079014"
         height="52.522774"
         x="681.92426"
         y="474.90024"
         ry="0"
         inkscape:label="димензије" />
      <path
         d="m 705.18718,475.3374 c -8.7333,0 -14.8667,3.86666 -17,6.33333 -1.0667,1.26667 -2.2,4 -2.2,6.13334 v 36.86891 h -4 v 2.53111 h 16 v -2.53111 h -4 v -19.07049 l 7.9333,-9.4 c 1.7334,1.2 4.3334,2.13428 7.4,2.13428 6.2,0 9.4667,-5.59936 9.4667,-11.86603 0,-7.20001 -6.3333,-11.13334 -13.6,-11.13334 z m -11.2,10.2 c 0,-1.8 0.3333,-3.53397 1.5333,-4.93397 1.2,-1.46667 4.0667,-2.73397 7.4667,-2.73397 5.7333,0 8.2,3.53461 8.2,8.53461 0,3.6 -2.0667,8.73334 -5.4667,8.73334 -1.4666,0 -2.5333,-1.13239 -3.4,-1.79905 -0.067,0 -0.2,-0.0667 -0.2666,-0.0667 -0.2,-0.13333 -0.5334,-0.13333 -0.7334,0.13333 l -7.3333,8.66667 z"
         id="path1934"
         sodipodi:nodetypes="scsccccccccsssscsssccccs"
         style="font-size:66.6667px;font-family:'Ponomar Unicode';-inkscape-font-specification:'Ponomar Unicode';display:inline;stroke-width:7"
         inkscape:label="Р" />
    </g>
    <g
       inkscape:groupmode="layer"
       id="layer21"
       inkscape:label="П">
      <rect
         style="display:inline;fill:#000000;stroke-width:6.15255"
         id="rect794-6-3"
         width="2.4610023"
         height="8.2778587"
         x="642.69623"
         y="529.06189"
         inkscape:label="доље-1" />
      <rect
         style="display:inline;fill:#000000;stroke-width:6.15255"
         id="rect794-8-8"
         width="2.4610023"
         height="8.2778587"
         x="663.67426"
         y="529.06189"
         inkscape:label="доље-2" />
      <rect
         style="display:inline;fill:#000000;stroke-width:6.15255"
         id="rect1078-93"
         width="2.4610023"
         height="8.2778587"
         x="642.69623"
         y="471.43359"
         inkscape:label="горе-1" />
      <rect
         style="display:inline;fill:#000000;stroke-width:6.15255"
         id="rect1080-7"
         width="2.4610023"
         height="8.2778587"
         x="663.67426"
         y="471.43359"
         inkscape:label="горе-2" />
      <rect
         style="display:inline;opacity:0.5;fill:#0000ff;stroke-width:7.42296"
         id="rect747-2-157"
         width="39.466579"
         height="51.754246"
         x="634.08557"
         y="478.92468"
         ry="0"
         inkscape:label="димензије" />
      <path
         d="m 646.38256,527.6337 v -45.48651 h 14.6667 v 45.48651 h -4 v 2.94276 h 16 v -2.94276 h -4 v -45.48651 h 4 v -2.90409 h -38.66668 v 2.90409 h 3.99998 v 45.48651 h -3.99998 v 2.94276 h 15.99998 v -2.94276 z"
         id="path1952"
         sodipodi:nodetypes="ccccccccccccccccccccc"
         style="font-size:66.6667px;font-family:'Ponomar Unicode';-inkscape-font-specification:'Ponomar Unicode';display:inline;stroke-width:7"
         inkscape:label="П" />
    </g>
    <g
       inkscape:groupmode="layer"
       id="layer24"
       inkscape:label="О">
      <rect
         style="display:inline;fill:#000000;stroke-width:5.61029"
         id="rect794-6-9"
         width="2.016376"
         height="8.4007807"
         x="602.28583"
         y="529.97961"
         inkscape:label="доље-1" />
      <rect
         style="display:inline;fill:#000000;stroke-width:5.61029"
         id="rect1078-9"
         width="2.016376"
         height="8.4007807"
         x="606.88751"
         y="471.49533"
         inkscape:label="горе-1" />
      <rect
         style="display:inline;opacity:0.5;fill:#0000ff;stroke-width:6.76873"
         id="rect747-2-15"
         width="32.336201"
         height="52.522774"
         x="589.41302"
         y="479.09766"
         ry="0"
         inkscape:label="димензије" />
      <path
         d="m 611.56535,526.44485 c 4.93333,-4.13334 9.86667,-9.93334 9.86667,-19.60001 0,-5.13334 -1.26667,-7.80001 -3.8,-11.93334 -2.93334,-4.73334 -6.46667,-8.33334 -6.46667,-12.53334 v -2.73334 c 0,-0.33333 -0.4,-0.66666 -0.8,-0.66666 -4.40001,0 -7.66667,1.8 -10.33334,4 -3.53334,2.86667 -10.53334,10.46667 -10.53334,19.06668 0,7.33333 3.46667,12.26667 6.46667,16.66667 1.8,2.66667 4.66667,7.60001 4.66667,10.13334 v 2 c 0,0.33333 0.4,0.6 0.86666,0.6 3.60001,0 7.93334,-3.26667 10.06668,-5 z m 1.6,-16.60001 c 0,6.33334 -2.53334,14.0308 -4.93334,16.09747 -1.4,1.2 -1.8,1.53333 -2.93333,2.06667 -1.26667,0.6 -1.93334,1.06666 -3.06667,1.06666 v -1.6 c 0,-1.73333 -0.73334,-4.83079 -1.6,-6.83079 -1.66667,-3.86667 -2.73334,-11.26668 -2.73334,-18.53335 0,-7.13333 1.66667,-15.79831 4.86667,-18.59831 2.33334,-2.00001 3.84388,-2.40001 6.57722,-2.40001 l 0.15612,3.86667 c 0.13179,3.26401 0.4,6.13165 1.46667,9.99832 1.46666,5.4 2.2,8.73333 2.2,14.86667 z"
         id="path750"
         style="font-size:66.6667px;font-family:'Ponomar Unicode';-inkscape-font-specification:'Ponomar Unicode';stroke-width:7"
         inkscape:label="О"
         sodipodi:nodetypes="cscssscscssscscccscsccscs" />
    </g>
    <g
       inkscape:groupmode="layer"
       id="layer23"
       inkscape:label="Њ">
      <rect
         style="display:inline;fill:#000000;stroke-width:6.03148"
         id="rect794-6-2"
         width="2.3651025"
         height="8.2778587"
         x="537.66132"
         y="528.909"
         inkscape:label="доље-1" />
      <rect
         style="display:inline;fill:#000000;stroke-width:6.03148"
         id="rect794-8-3"
         width="2.3651025"
         height="8.2778587"
         x="565.82184"
         y="528.909"
         inkscape:label="доље-2" />
      <rect
         style="display:inline;fill:#000000;stroke-width:6.03148"
         id="rect1078-2"
         width="2.3651025"
         height="8.2778587"
         x="537.66132"
         y="471.28046"
         inkscape:label="горе-1" />
      <rect
         style="display:inline;fill:#000000;stroke-width:6.03148"
         id="rect1080-3"
         width="2.3651025"
         height="8.2778587"
         x="557.82184"
         y="471.28046"
         inkscape:label="горе-2" />
      <rect
         style="display:inline;opacity:0.5;fill:#0000ff;stroke-width:8.72399"
         id="rect747-2-1"
         width="54.51376"
         height="51.754246"
         x="529.38617"
         y="478.77155"
         ry="0"
         inkscape:label="димензије" />
      <path
         d="m 565.88587,503.89823 c 2.2,1.13334 4.46667,2.33334 6.66667,3.46667 v 19.97384 h -9.86667 V 501.9649 c 0.46667,0.33333 1,0.66667 1.46667,0.93333 z m 0.8,-25.20001 h -16.00001 v 2.74811 h 4 v 22.80426 l -13.26667,-3.26667 v -19.53759 h 4 v -2.61478 h -16.00001 v 2.61478 h 4.00001 v 46.02574 h -4.00001 v 2.55951 h 16.00001 v -2.55951 h -4 V 503.7649 l 13.26667,3.26667 v 20.30717 h -4 v 2.69284 h 32.53335 v -2.69284 h -2.66667 v -21.23811 c 0,-0.46667 -0.2,-0.66667 -0.6,-0.66667 -2,0 -3.86666,-0.46666 -6,-0.73333 -0.53333,-0.0667 -1.53333,-0.46667 -2.2,-0.53333 -3.26667,-1.26667 -6.46667,-2.93334 -9.06667,-4.93334 v -17.78763 h 4 z"
         id="path748"
         style="font-size:66.6667px;font-family:'Ponomar Unicode';-inkscape-font-specification:'Ponomar Unicode';stroke-width:7"
         inkscape:label="Њ"
         sodipodi:nodetypes="cccccccccccccccccccccccccccccccccsssccccc" />
    </g>
    <g
       inkscape:groupmode="layer"
       id="layer11"
       inkscape:label="Н"
       style="display:inline"
       transform="translate(-58.00003,-44.985392)">
      <rect
         style="display:inline;fill:#000000;stroke-width:6.03148"
         id="rect794-6"
         width="2.3651025"
         height="8.2778587"
         x="554.66425"
         y="573.73413"
         inkscape:label="доље-1" />
      <rect
         style="display:inline;fill:#000000;stroke-width:6.03148"
         id="rect794-8"
         width="2.3651025"
         height="8.2778587"
         x="574.82477"
         y="573.73413"
         inkscape:label="доље-2" />
      <rect
         style="display:inline;fill:#000000;stroke-width:6.03148"
         id="rect1078"
         width="2.3651025"
         height="8.2778587"
         x="554.66425"
         y="516.10559"
         inkscape:label="горе-1" />
      <rect
         style="display:inline;fill:#000000;stroke-width:6.03148"
         id="rect1080"
         width="2.3651025"
         height="8.2778587"
         x="574.82477"
         y="516.10559"
         inkscape:label="горе-2" />
      <rect
         style="display:inline;opacity:0.5;fill:#0000ff;stroke-width:7.27689"
         id="rect747-2"
         width="37.928654"
         height="51.754246"
         x="546.3891"
         y="523.59668"
         ry="0"
         inkscape:label="димензије" />
      <path
         d="m 546.56782,575.09113 h 16 v -2.8404 h -4 v -22.01539 l 13.2666,3.26667 v 18.74872 h -4 v 2.8404 h 16.0001 v -2.8404 h -4 v -45.50065 h 4 v -2.99232 h -16.0001 v 2.99232 h 4 v 23.23719 l -13.2666,-3.26667 v -19.97052 h 4 v -2.99232 h -16 v 2.99232 h 4 v 45.50065 h -4 z"
         id="path2784-1"
         sodipodi:nodetypes="ccccccccccccccccccccccccccccc"
         inkscape:label="Н"
         style="display:inline;font-size:66.6667px;font-family:'Ponomar Unicode';-inkscape-font-specification:'Ponomar Unicode';stroke-width:7" />
    </g>
    <g
       inkscape:groupmode="layer"
       id="layer20"
       inkscape:label="М">
      <rect
         style="display:inline;fill:#000000;stroke-width:6.03148"
         id="rect794-8-7-7-5-3-9-3-0-2-7-3-5"
         width="2.3651025"
         height="8.2778587"
         x="1086.4532"
         y="423.92789"
         inkscape:label="доље-2" />
      <rect
         style="display:inline;fill:#000000;stroke-width:6.03148"
         id="rect794-8-7-7-5-3-9-3-09-3-2-9"
         width="2.3651025"
         height="8.2778587"
         x="1049.1771"
         y="423.92789"
         inkscape:label="доље-1" />
      <rect
         style="display:inline;fill:#000000;stroke-width:6.03148"
         id="rect1092-5-4-3-8"
         width="2.3651025"
         height="8.2778587"
         x="1066.7845"
         y="366.29935"
         inkscape:label="горе-1" />
      <rect
         style="display:inline;fill:#000000;stroke-width:6.03148"
         id="rect1092-5-4-3-8-1"
         width="2.3651025"
         height="8.2778587"
         x="1087.1479"
         y="366.18759"
         inkscape:label="горе-2" />
      <rect
         style="display:inline;opacity:0.5;fill:#0000ff;stroke-width:8.76632"
         id="rect747-6-2-0-94-3-8-3-8"
         width="55.043835"
         height="51.754246"
         x="1041.9214"
         y="373.53275"
         ry="0"
         inkscape:label="димензије" />
      <path
         d="m 1076.0497,424.90882 v -2.53111 h -4 v -4.20509 l 12.4,-28.46668 v 32.67177 h -4 v 2.53111 h 16 v -2.53111 h -4 v -46.27114 h 4 v -2.53111 h -16 v 2.53111 h 4 v 7.00509 l -12.4,28.46668 v -35.47177 h 4 v -2.53111 h -16 v 2.53111 h 4 v 6.20223 c -0.4667,3.06667 -1.0667,5.8 -2.8667,8.66667 -2.5334,3.93333 -5.2667,5.8 -8.5334,9.6 -5.1333,6.06667 -8,10.73334 -8,17.60001 0,2.26667 0.5334,3.4689 1.0667,4.20223 h -3.7333 v 2.53111 h 16.4666 v -2.53111 h -2.5333 c -1.4,-0.53333 -3,-2.80223 -3,-6.00223 0,-4.86667 2.9333,-10.20159 5.7333,-15.13493 2.1334,-3.73333 4.0667,-6.33557 5.4001,-10.0689 v 31.20606 h -4 v 2.53111 z"
         id="path1940"
         sodipodi:nodetypes="ccccccccccccccccccccccccccccsccccccscccccc"
         style="font-size:66.6667px;font-family:'Ponomar Unicode';-inkscape-font-specification:'Ponomar Unicode';display:inline;stroke-width:7"
         inkscape:label="М" />
    </g>
    <g
       inkscape:groupmode="layer"
       id="layer10"
       inkscape:label="Љ">
      <rect
         style="display:inline;fill:#000000;stroke-width:6.03148"
         id="rect794-8-7-7-5-3-9-3-0-2-7-3"
         width="2.3651025"
         height="8.2778587"
         x="1021.1888"
         y="423.72607"
         inkscape:label="доље-2" />
      <rect
         style="display:inline;fill:#000000;stroke-width:6.03148"
         id="rect794-8-7-7-5-3-9-3-09-3-2"
         width="2.3651025"
         height="8.2778587"
         x="990.56702"
         y="423.72607"
         inkscape:label="доље-1" />
      <rect
         style="display:inline;fill:#000000;stroke-width:6.03148"
         id="rect1092-5-4-3"
         width="2.3651025"
         height="8.2778587"
         x="1012.567"
         y="366.09753"
         inkscape:label="горе-1" />
      <rect
         style="display:inline;opacity:0.5;fill:#0000ff;stroke-width:8.76632"
         id="rect747-6-2-0-94-3-8-3"
         width="55.043835"
         height="51.754246"
         x="983.31128"
         y="373.33093"
         ry="0"
         inkscape:label="димензије" />
      <path
         d="m 1020.6474,399.05279 c 2.2,1.13333 4.4667,2.33333 6.6667,3.46667 v 21.06668 h -9.8667 v -26.46668 c 0.4667,0.33333 1,0.66666 1.5334,0.93333 z m -32.99998,24.46668 h -4.20001 v 1.66667 h 16.93339 v -1.66667 h -3.13338 c -0.73333,-0.73333 -1.46667,-2 -1.46667,-3.46667 0,-4.6 0.73334,-7.46667 2.33334,-10.93334 1.73333,-3.66667 3.40001,-6.8 5.53331,-9.93334 l 2.3334,-3.2 c 1.4666,-2.06667 2.5333,-4.33333 3.4666,-6.73333 v 34.33335 h -4 v 1.6 h 32.5334 v -1.6 h -2.6667 v -21.66668 c 0,-0.46667 -0.2,-0.66667 -0.6,-0.66667 -1.6667,-0.0667 -1.9333,-0.0667 -3.4,-0.26667 -1.2,-0.13333 -3.6667,-0.6 -4.8,-1 -3.2667,-1.26666 -6.4667,-2.93333 -9.0667,-4.93333 v -19.60001 h 4 v -1.6 h -16 v 1.6 h 4 v 7.26667 c -1.0666,6.26667 -4,11.33334 -7.6666,15.00001 -4.80005,4.53333 -10.53338,9.46667 -13.40005,15.73334 -1,2.06667 -1.46667,4.2 -1.46667,6.46667 0,1.06667 0.46667,2.93333 0.73334,3.6 z"
         id="path746"
         style="font-size:66.6667px;font-family:'Ponomar Unicode';-inkscape-font-specification:'Ponomar Unicode';stroke-width:7"
         inkscape:label="Љ" />
    </g>
    <g
       inkscape:groupmode="layer"
       id="layer17"
       inkscape:label="Л">
      <rect
         style="display:inline;fill:#000000;stroke-width:6.03148"
         id="rect794-8-7-7-5-3-9-3-0-2-7"
         width="2.3651025"
         height="8.2778587"
         x="968.36359"
         y="423.58951"
         inkscape:label="доље-2" />
      <rect
         style="display:inline;fill:#000000;stroke-width:6.03148"
         id="rect794-8-7-7-5-3-9-3-09-3"
         width="2.3651025"
         height="8.2778587"
         x="947.1662"
         y="423.58951"
         inkscape:label="доље-1" />
      <rect
         style="display:inline;fill:#000000;stroke-width:6.03148"
         id="rect1092-5-4"
         width="2.3651025"
         height="8.2778587"
         x="969.1662"
         y="365.96097"
         inkscape:label="горе-1" />
      <rect
         style="display:inline;opacity:0.5;fill:#0000ff;stroke-width:7.37408"
         id="rect747-6-2-0-94-3-8"
         width="38.948452"
         height="51.754246"
         x="939.9104"
         y="373.19437"
         ry="0"
         inkscape:label="димензије" />
      <path
         d="m 953.92517,422.20482 c -0.7334,-0.66667 -1.4667,-0.93397 -1.4667,-2.40063 0,-3.86667 0.5333,-7.13334 2.3333,-10.93334 2.4667,-5.26667 4.5334,-6.40001 7.8667,-11.13334 1.6,-2.26667 2.6667,-4.6 3.4667,-6.73334 v 31.20065 h -4 v 2.66604 h 16 v -2.66604 h -4 V 376.4268 h 4 v -2.8893 h -16 v 2.8893 h 4 v 6.04403 c -0.8,4.66667 -2.6667,8.66668 -5.0667,11.93334 -3.2,4.40001 -7.6,7.13334 -12.0667,12.60001 -3.3333,4.13334 -5.40003,8.2 -5.40003,12.66667 0,1.4 0.6,2.0673 0.7334,2.53397 h -4.2 v 2.66604 h 16.93333 v -2.66604 z"
         id="path2067"
         sodipodi:nodetypes="csccccccccccccccccccscccccc"
         style="font-size:66.6667px;font-family:'Ponomar Unicode';-inkscape-font-specification:'Ponomar Unicode';display:inline;stroke:none;stroke-width:7"
         inkscape:label="Л" />
    </g>
    <g
       inkscape:groupmode="layer"
       id="layer7"
       inkscape:label="К">
      <rect
         style="display:inline;fill:#000000;stroke-width:6.03148"
         id="rect794-8-7-7-5-3-9-3-0-2"
         width="2.3651025"
         height="8.2778587"
         x="920.80133"
         y="422.61005"
         inkscape:label="доље-2" />
      <rect
         style="display:inline;fill:#000000;stroke-width:6.03148"
         id="rect794-8-7-7-5-3-9-3-09"
         width="2.3651025"
         height="8.2778587"
         x="899.60394"
         y="422.61005"
         inkscape:label="доље-1" />
      <rect
         style="display:inline;fill:#000000;stroke-width:6.03148"
         id="rect1092-5"
         width="2.3651025"
         height="8.2778587"
         x="899.60394"
         y="364.98151"
         inkscape:label="горе-1" />
      <rect
         style="display:inline;opacity:0.5;fill:#0000ff;stroke-width:7.36699"
         id="rect747-6-2-0-94-3"
         width="38.948452"
         height="51.654774"
         x="892.52368"
         y="372.05099"
         ry="0"
         inkscape:label="димензије" />
      <rect
         style="display:inline;fill:#000000;stroke-width:6.03148"
         id="rect1094-5"
         width="2.3651025"
         height="8.2778587"
         x="920.80133"
         y="364.98151"
         inkscape:label="горе-2" />
      <path
         d="m 908.66407,423.49292 v -2.39018 h -4.00001 V 397.9319 c 2.53334,0 5.00001,-0.26667 7.33334,-0.6 2,0.8 3.73334,1.82767 5.53334,3.96101 2,2.53333 2.73333,7.46667 2.73333,12.26667 0,2.66667 -0.66666,5.80983 -1,7.54316 h -3.73333 v 2.39018 h 15.46667 v -2.39018 h -3.2 c 0,-0.66667 0.26667,-6.87649 0.26667,-9.60983 0,-1.8 -0.4,-6.53333 -3.06667,-10.33333 -2.33334,-3.33334 -6.06667,-4.02768 -9.40001,-4.62768 2.66667,-0.8 5.00001,-2.43899 6.86667,-4.239 2.93334,-2.93333 3.93334,-6.66667 3.93334,-10.46667 0,-2.93333 -0.2,-5.4131 -0.2,-7.0131 h 3.4 v -2.65357 H 914.1974 v 2.65357 h 3.80001 c 0.4,1.4 0.73333,2.6131 0.73333,4.87977 0,4.46667 -0.73333,8.58215 -3.66667,12.44881 -2.13333,2.86667 -7.13334,3.04882 -10.40001,3.04882 v -20.3774 h 4.00001 v -2.65357 h -16.00001 v 2.65357 h 4 v 46.28961 h -4 v 2.39018 z"
         id="path744"
         style="font-size:66.6667px;font-family:'Ponomar Unicode';-inkscape-font-specification:'Ponomar Unicode';stroke-width:7"
         inkscape:label="К"
         sodipodi:nodetypes="ccccccsccccccscccsccccccscccccccccccc" />
    </g>
    <g
       inkscape:groupmode="layer"
       id="layer15"
       inkscape:label="Ј">
      <rect
         style="display:inline;fill:#000000;stroke-width:6.03148"
         id="rect794-8-7-7-5-3-9-3-0-1"
         width="2.3651025"
         height="8.2778587"
         x="869.98029"
         y="422.54684"
         inkscape:label="доље-1" />
      <rect
         style="display:inline;opacity:0.5;fill:#0000ff;stroke-width:6.26498"
         id="rect747-6-7"
         width="28.113476"
         height="51.754246"
         x="858.85217"
         y="372.18146"
         ry="0"
         inkscape:label="димензије" />
      <rect
         style="display:inline;fill:#000000;stroke-width:6.03148"
         id="rect1096"
         width="2.3651025"
         height="8.2778587"
         x="877.60895"
         y="364.9183"
         inkscape:label="горе-1" />
      <path
         d="m 868.69897,418.22289 c -1,-1.66666 -1.4666,-3.66666 -1.4666,-6.06667 h -7.2 c -0.7334,0 -1.0667,0.46667 -1.0667,0.93334 0,4.6 4.4,9.33334 8.2667,10.33334 1.6,0.4 2.9333,0.46666 4.2666,0.46666 1.8667,0 3.3334,-0.13333 5.1334,-0.73333 3.8,-1.33333 6.4,-6 6.4,-11.06667 v -37.06513 h 3.5333 v -2.93489 h -15.0667 v 2.93489 h 3.6 v 39.7318 c 0,2.46666 -0.2666,4.13333 -0.8666,5.06666 -0.3334,0.60001 -0.9334,0.93334 -1.7334,0.93334 -0.8666,0 -2.4666,-0.26667 -3.8,-2.53334 z"
         id="path677-2"
         sodipodi:nodetypes="ccsscscsccccccscsc"
         style="font-size:66.6667px;font-family:'Ponomar Unicode';-inkscape-font-specification:'Ponomar Unicode';display:inline;stroke-width:7"
         inkscape:label="Ј" />
    </g>
    <g
       inkscape:groupmode="layer"
       id="layer14"
       inkscape:label="И"
       transform="translate(0,2)">
      <rect
         style="display:inline;fill:#000000;stroke-width:6.03148"
         id="rect794-8-7-7-5-3-9-3-0"
         width="2.3651025"
         height="8.2778587"
         x="843.99866"
         y="421.4263"
         inkscape:label="доље-2" />
      <rect
         style="display:inline;fill:#000000;stroke-width:6.03148"
         id="rect794-8-7-7-5-3-9-3"
         width="2.3651025"
         height="8.2778587"
         x="822.80127"
         y="421.4263"
         inkscape:label="доље-1" />
      <rect
         style="display:inline;fill:#000000;stroke-width:6.03148"
         id="rect1092"
         width="2.3651025"
         height="8.2778587"
         x="822.80127"
         y="363.79776"
         inkscape:label="горе-1" />
      <rect
         style="display:inline;opacity:0.5;fill:#0000ff;stroke-width:7.32277"
         id="rect747-6-2-0-94"
         width="38.09383"
         height="52.181557"
         x="815.54547"
         y="370.60385"
         ry="0"
         inkscape:label="димензије" />
      <rect
         style="display:inline;fill:#000000;stroke-width:6.03148"
         id="rect1094"
         width="2.3651025"
         height="8.2778587"
         x="843.99866"
         y="363.79776"
         inkscape:label="горе-2" />
      <path
         d="m 815.91586,422.41764 h 16 v -2.71163 h -4 v -21.04763 l 13.3333,-6.46667 v 27.5143 h -4 v 2.71163 h 16 v -2.71163 h -4 v -45.73243 h 4 v -2.8893 h -16 v 2.8893 h 4 v 15.44404 l -13.3333,6.46667 v -21.91071 h 4 v -2.8893 h -16 v 2.8893 h 4 v 45.73243 h -4 z"
         id="path680-2"
         sodipodi:nodetypes="ccccccccccccccccccccccccccccc"
         style="font-size:66.6667px;font-family:'Ponomar Unicode';-inkscape-font-specification:'Ponomar Unicode';display:inline;stroke-width:7"
         inkscape:label="И" />
    </g>
    <g
       inkscape:groupmode="layer"
       id="layer6"
       inkscape:label="З">
      <rect
         style="display:inline;opacity:0.5;fill:#0000ff;stroke-width:7.96587"
         id="rect747-6-2-0-0"
         width="43.648876"
         height="53.8908"
         x="769.47937"
         y="370.73938"
         ry="0"
         inkscape:label="димензије" />
      <rect
         style="display:inline;fill:#000000;stroke-width:5.5207"
         id="rect794-8-7-70-8-4-9"
         width="1.9814821"
         height="8.2778587"
         x="794.11047"
         y="422.836"
         inkscape:label="доље-1" />
      <rect
         style="display:inline;fill:#000000;stroke-width:5.5207"
         id="rect1082-3-7-6-2"
         width="1.9814821"
         height="8.2778587"
         x="794.11047"
         y="365.20746"
         inkscape:label="горе" />
      <path
         d="m 778.09675,419.17936 c 0,-0.26667 -0.0667,-0.73334 -0.13333,-1 1.86667,0.33333 4.33334,1.4 6.73334,2.66667 3.2,1.66666 6.66667,3.06666 12.13334,3.06666 9,0 16.06667,-4.66666 16.06667,-14.06667 0,-7.46667 -5.33333,-11.53334 -10.86667,-13.20001 4.6,-1.93333 8.53334,-5.33333 8.53334,-11.8 0,-8.33334 -7.86667,-13.33334 -16.13334,-13.33334 -5.80001,0 -10.80001,2.62441 -13.26668,4.69108 -1.06666,-0.93334 -1.86666,-3.42442 -2.06666,-4.95775 0,-0.13333 -0.26667,-0.26667 -0.53334,-0.26667 -0.26667,0 -0.53333,0.13334 -0.6,0.26667 -0.33333,1.46667 -0.46667,5 -0.46667,7.93334 0,2.06667 0.0667,3.86667 0.2,4.46667 0.0667,0.53333 0.86667,0.4 1.06667,0 1.73334,-4.00001 6.00001,-9.33662 11.80001,-9.33662 6.26667,0 11.46667,4.53334 11.46667,10.66667 0,5.33334 -1.26667,8.6277 -5.13334,10.4277 -3.13333,-1 -5.6,-2.62442 -8.4,-4.55775 -0.26667,-0.2 -0.6,-0.2 -0.86667,0 -2.26666,2 -4.6,3.8 -6.4,5.46667 -0.33333,0.26667 -0.4,0.66667 -0.0667,1 1.8,1.93333 4.60001,4.33334 6.46667,6 0.26667,0.2 0.66667,0.2 0.93334,0 2.2,-1.86666 4.93333,-3.80328 8.06667,-5.06994 0.33333,-0.13334 0.73333,-0.33334 1.26667,-0.13334 4.26666,1 6.33333,5.73662 6.33333,11.53662 0,5.93334 -4.6,11.86995 -10.66667,11.86995 -3.53334,0 -7.13334,-1.66667 -9.26667,-3 -3.33334,-2.06667 -6.33334,-4.20328 -9.46667,-4.20328 h -0.53334 c -2.93333,0 -5,2.2 -5,5.26667 0,2.26667 1.26667,4.73333 3.6,4.73333 h 0.53334 c 2.4,0 4.66666,-2.13333 4.66666,-5.13333 z"
         id="path742"
         style="font-size:66.6667px;font-family:'Ponomar Unicode';-inkscape-font-specification:'Ponomar Unicode';stroke-width:7"
         inkscape:label="З"
         sodipodi:nodetypes="sccsscssccscsccsscccccccccsscsssssss" />
    </g>
    <g
       inkscape:groupmode="layer"
       id="layer5"
       inkscape:label="Ж">
      <rect
         style="display:inline;opacity:1;fill:none;stroke-width:5;stroke-dasharray:none;stroke-dashoffset:0"
         id="rect747-6-2-0-9"
         width="58.177452"
         height="51.754246"
         x="710.87213"
         y="372.94656"
         ry="0"
         inkscape:label="димензије" />
      <rect
         style="display:inline;fill:none;stroke-width:5;stroke-dasharray:none;stroke-dashoffset:0;opacity:1"
         id="rect794-8-7-70-8-4-8"
         width="1.9814821"
         height="8.2778587"
         x="738.72083"
         y="423.04318"
         inkscape:label="доље-1" />
      <rect
         style="display:inline;fill:none;stroke-width:5;stroke-dasharray:none;stroke-dashoffset:0;opacity:1"
         id="rect1082-3-7-6-3"
         width="1.9814821"
         height="8.2778587"
         x="738.72083"
         y="365.41464"
         inkscape:label="горе" />
      <path
         d="m 747.61364,424.72102 v -2.30238 h -4 V 396.6722 c 4.66666,1.46666 8,6.91548 10.13333,11.64881 2.26667,5.06667 2.60001,10.49763 2.60001,14.09763 h -4.06667 v 2.30238 h 16.00001 v -2.30238 h -2.86667 v -0.53333 c 0,-5.00001 -1.8,-10.89763 -5.86667,-16.69763 -3.8,-5.33334 -9.20001,-9.26667 -14.20001,-10.40001 1.46667,-1.46667 2.93333,-3.73333 4.2,-6.06667 1.4,-2.6 2.8,-5.2 4,-6.4 0.93334,-0.93334 2.20001,-1.33334 3.73334,-1.33334 1.53333,0 2.93333,0.2 4.33334,0.93334 0.46666,0.26666 0.86666,0.0667 0.8,-0.46667 0,-0.46667 -0.0667,-0.86667 -0.0667,-1.33333 0,-2.86667 0.8,-4.93334 2.73333,-6.00001 0.33334,-0.2 0.46667,-1.2 -0.0667,-1.26666 -0.53334,-0.0667 -1.06667,-0.0667 -1.73334,-0.0667 -0.86666,0 -1.93333,0.0667 -3.46667,0.0667 -4.66667,0 -7.2,3.86667 -8.8,7.06667 -1.2,2.46666 -1.8,4.73333 -3.33334,7.93333 -1.26666,2.53334 -2.53333,3.80656 -4.06666,5.33989 v -17.94317 h 4 v -2.21458 h -16.00001 v 2.21458 h 4 v 17.94317 c -1.6,-1.53333 -2.86667,-2.80655 -4.06667,-5.33989 -1.53333,-3.2 -2.13333,-5.46667 -3.33333,-7.93333 -1.6,-3.2 -4.13334,-7.06667 -8.80001,-7.06667 -1.53333,0 -2.6,-0.0667 -3.46667,-0.0667 -0.66666,0 -1.2,0 -1.73333,0.0667 -0.53333,0.0667 -0.4,1.06666 -0.0667,1.26666 2,1.13334 2.73334,3.06667 2.73334,6.00001 0,0.46666 -0.0667,0.86666 -0.0667,1.33333 -0.0667,0.53333 0.33333,0.73333 0.8,0.46667 1.4,-0.73334 2.8,-0.93334 4.33334,-0.93334 1.53333,0 2.8,0.4 3.73333,1.33334 1.2,1.2 2.6,3.8 4,6.4 1.20001,2.33334 2.66667,4.6 4.13334,6.06667 -5,1.13334 -10.40001,5.06667 -14.13334,10.40001 -4.06667,5.8 -5.86667,11.69762 -5.86667,16.69763 v 0.53333 h -2.86667 v 2.30238 h 16.00001 v -2.30238 h -4.06667 c 0,-3.6 0.33333,-9.03096 2.6,-14.09763 2.06667,-4.73333 5.40001,-10.18215 10.13334,-11.64881 v 25.74644 h -4 v 2.30238 z"
         id="path740"
         style="font-size:66.6667px;font-family:'Ponomar Unicode';-inkscape-font-specification:'Ponomar Unicode';stroke-width:5;stroke-dasharray:none;stroke-dashoffset:0;opacity:1;fill:none"
         inkscape:label="Ж"
         sodipodi:nodetypes="cccccccccccscccssccscsssccccccccccccssscsccsscccscccccccccccc" />
    </g>
    <g
       inkscape:groupmode="layer"
       id="layer16"
       inkscape:label="Е"
       transform="translate(-58.00003,-44.985392)">
      <rect
         style="display:inline;opacity:0.5;fill:#0000ff;stroke-width:7.3501"
         id="rect747-6-2-6"
         width="38.378704"
         height="52.181557"
         x="730.29547"
         y="417.52768"
         ry="0"
         inkscape:label="димензије" />
      <rect
         style="display:inline;fill:#000000;stroke-width:6.03148"
         id="rect794-8-7-70-8-5"
         width="2.3651025"
         height="8.2778587"
         x="747.24237"
         y="467.6243"
         inkscape:label="доље-1" />
      <rect
         style="display:inline;fill:#000000;stroke-width:6.03148"
         id="rect1082-3-7-3"
         width="2.3651025"
         height="8.2778587"
         x="747.24237"
         y="409.99576"
         inkscape:label="горе" />
      <path
         d="m 752.12114,427.62412 h 15.00001 c 0.4,0 0.66667,-0.26666 0.66667,-0.66666 0,-0.46667 -0.33334,-1.82184 -0.73334,-1.82184 h -2.6 c -1.4,-4.53333 -5.13333,-7.7115 -15.73334,-7.7115 -9.8,0 -18.33334,7.46667 -18.33334,18.06667 0,5.60001 1.26667,8.93334 3.26667,14.20001 1.53333,4 4.8,8.53334 4.8,13.26667 0,1.53334 -0.26667,3.06667 -1,4.46667 -0.13333,0.2 -0.26667,0.66667 -0.26667,1.13334 0,0.33333 0.13334,0.66666 0.53334,0.73333 1.66666,0.33334 3.53333,0.53334 5.73333,0.53334 8.73334,0 17.19324,-4.05628 18.85991,-8.72295 l 2.6,0.73333 c 0.6,0.13333 1.3401,-1.54372 1.3401,-2.01039 0,-0.33333 -0.2,-0.66667 -0.53333,-0.8 l -13.93334,-4.06667 c -0.4,-0.0667 -0.93333,0.26667 -0.93333,0.73333 0,0.53334 -0.20677,1.94373 0.12656,2.07706 l 3.26667,1 c 0,4.4 -4.56772,7.38962 -10.50105,7.38962 -1.2,0 -1.73334,-0.0667 -2.93334,-0.26667 0.66667,-1.06667 1.10782,-1.53333 1.10782,-3.6 0,-4.8 -0.0667,-11.00001 -1.13334,-16.86668 1.73334,-1.73333 4.26667,-3.88437 5.80001,-5.08437 1.6,-1.26666 3.73333,-2.4 5.66667,-2.4 3.2,0 5.33333,1.75104 5.86667,4.68437 0.33333,1.8 0.4,2.17818 0.4,3.57818 h -3.13334 c -0.4,0 -0.66667,0.33333 -0.66667,0.73333 0,0.4 0.26667,1.75516 0.66667,1.75516 h 12.33334 c 0.46667,0 0.73334,-1.42182 0.73334,-1.82182 0,-0.4 -0.26667,-0.66667 -0.73334,-0.66667 h -1.46667 v -0.73333 c 0,-1.66667 -0.2,-2.84485 -0.93333,-5.31152 -0.86667,-3.2 -4.66667,-7.06667 -9.33334,-7.06667 h -0.2 c -6.33334,0 -12.3823,5.73069 -15.58231,9.46402 -0.86666,-4.2 -1.75103,-6.99735 -1.75103,-10.13068 0,-6.60001 1,-12.56172 10.33334,-12.56172 3.86667,0 7.66667,0.67321 7.66667,4.53988 0,0.33333 0,0.46667 -0.0667,0.73333 h -4.4 c -0.4,0 -0.6,1.4885 -0.6,1.82184 0,0.46666 0.33333,0.66666 0.73333,0.66666 z"
         style="font-size:66.6667px;font-family:'Ponomar Unicode';-inkscape-font-specification:'Ponomar Unicode';display:inline;stroke:none;stroke-width:7"
         id="path2018"
         inkscape:label="Е"
         sodipodi:nodetypes="cssscsscscscsccsccsccscsccsccsssssscscsscssscsssc" />
    </g>
    <g
       inkscape:groupmode="layer"
       id="layer3"
       inkscape:label="Д"
       transform="translate(-58.00003,-44.985392)">
      <rect
         style="display:inline;opacity:0.5;fill:#0000ff;stroke-width:8.27574"
         id="rect747-6-2-9"
         width="40.942574"
         height="62.009712"
         x="688.59656"
         y="417.5166"
         ry="0"
         inkscape:label="димензије" />
      <rect
         style="display:none;fill:#000000;stroke-width:6.03148"
         id="rect794-8-7-70-8-3"
         width="2.3651025"
         height="8.2778587"
         x="708.67749"
         y="468.75262"
         inkscape:label="доље-1" />
      <rect
         style="display:inline;fill:#000000;stroke-width:6.03148"
         id="rect1082-3-7-7"
         width="2.3651025"
         height="8.2778587"
         x="718.81995"
         y="410.26953"
         inkscape:label="горе" />
      <path
         d="m 709.12104,425.12298 c -2.26667,0 -4.46667,2.06339 -4.46667,4.33006 v 0.33333 c 0,2.26667 1.8,4.4 4.06667,4.4 h 0.4 c 2.2,0 4.33334,-1.66667 4.33334,-3.93333 0,-0.53334 0,-1 -0.13334,-1.53334 0.66667,0.86667 0.8,1.66667 0.8,2.33334 0,2.53333 -2.26666,5.66667 -5,8 -3.6,3.06667 -7.6,6.06667 -10.60001,9.66667 -2.73333,3.26667 -4.6,7.06667 -4.6,11.80001 0,2.2 0.2,3.77084 0.66667,5.43751 h -5.53334 c -0.53333,0 -0.66666,0.46667 -0.66666,0.93333 0,0.26667 0.0667,1.7625 0.13333,1.89583 1.26667,2.6 3.2,6.8 4.06667,9.86667 0.0667,0.2 0.2,0.33334 0.33333,0.33334 0.2,0 0.4,-0.13334 0.53334,-0.33334 1.4,-2.33333 3.53333,-6.93333 4.8,-9.86667 h 21.20001 c 1.26667,2.93334 3.4,7.53334 4.8,9.86667 0.13334,0.2 0.33334,0.33334 0.53334,0.33334 0.13333,0 0.26666,-0.13334 0.33333,-0.33334 0.4,-1.53333 1.06667,-3.4 1.8,-5.13333 0.8,-1.8 1.66667,-3.46667 2.26667,-4.73334 0.0667,-0.13333 0.13333,-1.62916 0.13333,-1.89583 0,-0.46666 -0.13333,-0.93333 -0.66667,-0.93333 h -5.4 v -46.11402 h 4 v -2.39018 h -16.00001 v 2.39018 h 4.00001 v 8.39197 c -1.06667,-2 -3.4,-3.1122 -5.73334,-3.1122 z m 6.13334,40.83425 H 702.1877 c -0.86666,-1.8 -1.06666,-3.10418 -1.06666,-5.63751 0,-3.33334 1.06666,-6.53334 2.8,-9.73334 1.66667,-3.13333 3.93333,-5.73989 6.33333,-9.13989 1.93334,-2.73334 4.00001,-4.18215 5.00001,-6.58215 z"
         id="path738"
         style="font-size:66.6667px;font-family:'Ponomar Unicode';-inkscape-font-specification:'Ponomar Unicode';stroke-width:7"
         inkscape:label="Д"
         sodipodi:nodetypes="sssssscsccscssccsccccscccssccccccccssccscccc" />
    </g>
    <g
       inkscape:groupmode="layer"
       id="layer2"
       inkscape:label="Г"
       style="display:inline">
      <rect
         style="display:inline;opacity:0.5;fill:#0000ff;stroke-width:6.20227"
         id="rect747-6-2-0"
         width="27.553492"
         height="51.754246"
         x="601.75317"
         y="372.38272"
         ry="0"
         inkscape:label="димензије" />
      <rect
         style="display:inline;fill:#000000;stroke-width:5.5207"
         id="rect794-8-7-70-8-4"
         width="1.9814821"
         height="8.2778587"
         x="609.09094"
         y="422.47934"
         inkscape:label="доље-1" />
      <rect
         style="display:inline;fill:#000000;stroke-width:5.5207"
         id="rect1082-3-7-6"
         width="1.9814821"
         height="8.2778587"
         x="609.09094"
         y="364.8508"
         inkscape:label="горе" />
      <path
         d="m 619.70549,374.9012 c 1.46667,3.66667 4.00001,7.80983 5.86667,9.34316 0.33334,0.26667 0.86667,0.13333 0.86667,-0.2 0,-0.66667 -0.13333,-1.26667 -0.13333,-1.93333 0,-3.13334 0.86666,-5.47649 2.33333,-7.6765 0.13333,-0.2 0.2,-1.19018 0.2,-1.39018 0,-0.26666 -0.13333,-0.53333 -0.4,-0.53333 h -26.26668 v 2.39018 h 4 v 46.6408 h -4 v 2.65357 h 16.00001 V 421.542 h -4 v -46.6408 z"
         id="path736"
         style="font-size:66.6667px;font-family:'Ponomar Unicode';-inkscape-font-specification:'Ponomar Unicode';stroke-width:7"
         inkscape:label="Г"
         sodipodi:nodetypes="ccsssssccccccccccc" />
    </g>
    <g
       inkscape:groupmode="layer"
       id="layer18"
       inkscape:label="В">
      <rect
         style="display:inline;opacity:0.5;fill:#0000ff;stroke-width:6.91481"
         id="rect747-6-2"
         width="34.248032"
         height="51.754246"
         x="566.69586"
         y="372.58551"
         ry="0"
         inkscape:label="димензије" />
      <rect
         style="display:inline;fill:#000000;stroke-width:6.03148"
         id="rect794-8-7-70-8"
         width="2.3651025"
         height="8.2778587"
         x="583.64276"
         y="422.68213"
         inkscape:label="доље-1" />
      <rect
         style="display:inline;fill:#000000;stroke-width:6.03148"
         id="rect1082-3-7"
         width="2.3651025"
         height="8.2778587"
         x="583.64276"
         y="365.05359"
         inkscape:label="горе" />
      <path
         d="m 598.53773,381.2515 c 0,-6.06667 -6.9334,-8.8 -13.2,-8.8 -4.6,0 -9.7334,2.46667 -11.8,4.46667 -1.6667,1.66666 -2.8,3.73333 -2.8,6.8 v 37.9896 h -4 v 2.61042 h 33.3333 v -2.61042 h -2.3333 v -13.98959 h 2.3333 v -2.82959 c 0,0 -1.7333,-0.0667 -2.6667,-0.0667 -3,0 -6.1333,-1.06667 -7,-1.46667 -3.8666,-1.66667 -6.9999,-3.85183 -9.6666,-6.5185 l 4.9333,-9.31115 c 2.2667,0.53334 4.0667,1.30371 6,1.30371 3.8,0 6.8667,-3.77782 6.8667,-7.57782 z m -13.2,22.60001 c 1.8,1.13334 3.4,2.13334 5.0666,2.86667 v 14.98959 h -11.6666 v -22.85626 c 2,1.86667 3.8,3.33334 6.6,5 z m -0.8,-19.5333 -5.8,10.73334 V 382.6515 c 0,-4.33333 2.4,-7.54078 6.8666,-7.54078 3.6667,0 6.7334,0.94078 6.7334,4.74078 v 1.6 c 0,2.33334 -1.4,3.06671 -3.8667,3.06671 -1,0 -2.0667,-0.33333 -3.0667,-0.53333 h -0.1333 c -0.2667,0 -0.6,0.0667 -0.7333,0.33333 z"
         style="font-size:66.6667px;font-family:'Ponomar Unicode';-inkscape-font-specification:'Ponomar Unicode';display:inline;stroke:none;stroke-width:7"
         id="path2003"
         sodipodi:nodetypes="sscscccccccccscccsssccccccccssssscsc"
         inkscape:label="В" />
    </g>
    <g
       inkscape:groupmode="layer"
       id="layer1"
       inkscape:label="Б">
      <rect
         style="display:inline;opacity:0.5;fill:#0000ff;stroke-width:6.95781"
         id="rect747-6"
         width="34.675343"
         height="51.754246"
         x="529.90051"
         y="371.91855"
         ry="0"
         inkscape:label="димензије" />
      <rect
         style="display:inline;fill:#000000;stroke-width:6.03148"
         id="rect794-8-7-70"
         width="2.3651025"
         height="8.2778587"
         x="544.29901"
         y="421.83929"
         inkscape:label="доље-1" />
      <rect
         style="display:inline;fill:#000000;stroke-width:6.03148"
         id="rect1082-3"
         width="2.3651025"
         height="8.2778587"
         x="544.29901"
         y="364.21075"
         inkscape:label="горе" />
      <path
         d="m 541.75554,374.72533 h 5.53333 c 1.2,0 2.4,0.3009 3.46667,1.96757 1.2,2.06666 2.13333,4.73333 2.33334,6.53333 0.0667,0.33334 0.4,0.66667 0.8,0.66667 0.33333,0 0.6,-0.33333 0.66666,-0.66667 0.46667,-3.53333 1.86667,-6.76756 4.2,-8.83423 0.33334,-0.33334 0.80001,-2.23244 -0.13333,-2.23244 h -28.86668 v 2.56577 h 4 v 45.93843 h -4 v 2.82916 h 34.53335 v -2.82916 h -2.66667 v -22.91877 c 0,-0.33333 -0.26666,-0.66666 -0.6,-0.66666 -2.4,0 -6.46667,-0.6 -8.2,-1.26667 -3.73334,-1.4 -8.33334,-4.13334 -11.06667,-6.53334 z m 5.2,20.70091 c 2.26667,1.2 5.2,2.66667 6.66667,3.46667 v 21.77085 h -11.86667 v -28.70419 c 1.53333,1.26667 3.13333,2.26667 5.2,3.46667 z"
         id="path734"
         style="font-size:66.6667px;font-family:'Ponomar Unicode';-inkscape-font-specification:'Ponomar Unicode';stroke-width:7"
         inkscape:label="Б"
         sodipodi:nodetypes="csccsccscccccccccssccccccccc" />
    </g>
    <g
       inkscape:groupmode="layer"
       id="layer9"
       inkscape:label="А"
       style="display:inline"
       transform="translate(-58.00003,-44.985392)">
      <rect
         style="display:inline;fill:#000000;stroke-width:6.03148"
         id="rect794-8-7"
         width="2.3651025"
         height="8.2778587"
         x="573.88959"
         y="466.73779"
         inkscape:label="доље-2" />
      <rect
         style="display:inline;fill:#000000;stroke-width:6.03148"
         id="rect794-8-7-75"
         width="2.3651025"
         height="8.2778587"
         x="554.44666"
         y="466.73779"
         inkscape:label="доље-1" />
      <rect
         style="display:inline;fill:#000000;stroke-width:6.03148"
         id="rect1082"
         width="2.3651025"
         height="8.2778587"
         x="573.88959"
         y="409.10925"
         inkscape:label="горе" />
      <rect
         style="display:inline;opacity:0.5;fill:#0000ff;stroke-width:7.03526"
         id="rect747"
         width="35.451656"
         height="51.754246"
         x="548.43799"
         y="416.77457"
         ry="0"
         inkscape:label="димензије" />
      <path
         d="m 551.06804,453.31698 c 0,2.33333 1.4223,4.2 3.689,4.86667 v 0.73333 c 0,2.6 -1.889,6.77521 -4.4223,6.77521 h -1.8667 v 2.4248 h 15.3333 v -2.4248 h -2.2666 c -2.2,0 -4.6223,-3.77521 -4.6223,-6.50854 v -0.8 c 2.5333,0 4.4889,-1.73334 4.8889,-4.33334 0,-0.26666 0.067,-0.46666 0.067,-0.73333 0,-2.13334 -0.8891,-3.40032 -2.9558,-4.13365 3.6667,0 7.86672,-2.73334 10.60002,-6.6 1.1334,-1.6 2,-3.13334 2.5334,-4.66667 l -0.4442,27.65539 h -4 v 2.54494 h 16 v -2.54494 h -4 v -46.07679 h 4 v -2.71163 h -16 v 2.71163 h 4 l -0.089,6.82186 c -1.2,-2.93333 -3.5334,-5.4 -7.26672,-5.4 -2.1334,0 -4.1779,0.99984 -5.6446,2.13318 -0.9429,0.1153 -1.5846,2.30604 -1.6,3.40004 0,2.33333 1.9334,4.06667 4.1334,4.06667 2.4666,0 4.2667,-1.93334 4.2667,-4.20001 0,-1.53333 -0.8667,-2.8 -1.9334,-3.53333 h 0.8667 c 2.2,0 3.93332,1.4 5.06672,3.26667 v 0.13333 c 0,2.4 -2.2,5.26667 -5.66672,7.13334 -5.7334,3.13333 -10.9334,5.46667 -10.9334,10.73334 0,1.8 1.0667,3.53333 2.9334,4.26667 -2.6,0 -4.6667,2.13333 -4.6667,5 z m 19.86672,-22.06668 c 0,3.73334 -0.9333,6.53334 -3.3333,9.93334 -0.93342,1.33333 -2.33342,2.6 -3.66672,3.53333 -1,0.73334 -1.7334,1 -2.8667,1 -1.2,0 -2.3333,-0.53333 -2.3333,-2.26666 0,-1.4 2.0666,-3.66667 4.1333,-5.33334 3.3334,-2.73333 6.80002,-5.66667 7.73342,-9.06667 0.2,0.8 0.3333,1.53333 0.3333,2.2 z"
         id="path2750-9"
         sodipodi:nodetypes="ccssccccssccsccccccccccccccccsccsscscscscccsccssccs"
         style="display:inline;font-size:66.6667px;font-family:'Ponomar Unicode';-inkscape-font-specification:'Ponomar Unicode';stroke:none;stroke-width:7"
         inkscape:label="А" />
    </g>
    <circle
       style="opacity:1;fill:none;stroke:#ff0000;stroke-width:4.62019;stroke-dasharray:none;stroke-dashoffset:0;stroke-opacity:1"
       id="path1819"
       cx="524.46246"
       cy="553.08881"
       r="10.189905"
       inkscape:label="круг2" />
    <g
       inkscape:groupmode="layer"
       id="layer32"
       inkscape:label="круг"
       transform="translate(-58.00003,-44.985392)">
      <rect
         style="display:inline;opacity:0.5;fill:#0000ff;stroke-width:2.73982"
         id="rect1923"
         width="16.693815"
         height="16.668947"
         x="599.70312"
         y="585.17285"
         ry="0"
         inkscape:label="димензије" />
      <circle
         style="opacity:1;fill:none;stroke:#000000;stroke-width:3.01245;stroke-dasharray:none;stroke-dashoffset:0;stroke-opacity:1"
         id="path1818"
         cx="608.11273"
         cy="593.72443"
         r="6.6440043"
         inkscape:label="круг" />
    </g>
  </g>
  <g
     inkscape:groupmode="layer"
     id="layer4"
     inkscape:label="test-container"
     transform="translate(30)" />
</svg>
